<?xml version="1.0" encoding="UTF-8" standalone="no"?>
<!-- Created with Inkscape (http://www.inkscape.org/) -->

<svg
   xmlns:dc="http://purl.org/dc/elements/1.1/"
   xmlns:cc="http://creativecommons.org/ns#"
   xmlns:rdf="http://www.w3.org/1999/02/22-rdf-syntax-ns#"
   xmlns:svg="http://www.w3.org/2000/svg"
   xmlns="http://www.w3.org/2000/svg"
   xmlns:sodipodi="http://sodipodi.sourceforge.net/DTD/sodipodi-0.dtd"
   xmlns:inkscape="http://www.inkscape.org/namespaces/inkscape"
   width="1578.4301"
   height="520"
   id="svg5622"
   version="1.1"
   inkscape:version="0.48.4 r9939"
   sodipodi:docname="Neues Dokument 5">
  <defs
     id="defs5624">
    <clipPath
       clipPathUnits="userSpaceOnUse"
       id="clipPath1626">
      <path
         inkscape:connector-curvature="0"
         d="m 28.348,28.347 291.969,0 0,391.18 -291.969,0 0,-391.18 z"
         id="path1628" />
    </clipPath>
  </defs>
  <sodipodi:namedview
     id="base"
     pagecolor="#ffffff"
     bordercolor="#666666"
     borderopacity="1.0"
     inkscape:pageopacity="0.0"
     inkscape:pageshadow="2"
     inkscape:zoom="0.99459303"
     inkscape:cx="789.21503"
     inkscape:cy="260"
     inkscape:document-units="px"
     inkscape:current-layer="layer1"
     showgrid="false"
     fit-margin-top="0"
     fit-margin-left="0"
     fit-margin-right="0"
     fit-margin-bottom="0"
     inkscape:window-width="1680"
     inkscape:window-height="990"
     inkscape:window-x="-4"
     inkscape:window-y="-4"
     inkscape:window-maximized="1" />
  <metadata
     id="metadata5627">
    <rdf:RDF>
      <cc:Work
         rdf:about="">
        <dc:format>image/svg+xml</dc:format>
        <dc:type
           rdf:resource="http://purl.org/dc/dcmitype/StillImage" />
        <dc:title></dc:title>
      </cc:Work>
    </rdf:RDF>
  </metadata>
  <g
     inkscape:label="Ebene 1"
     inkscape:groupmode="layer"
     id="layer1"
     transform="translate(-465.65547,30.797353)">
    <g
       transform="matrix(37.792035,0,0,-37.792035,-6434.2762,7906.0253)"
       id="g1622">
      <g
         id="g1624"
         clip-path="url(#clipPath1626)">
        <g
           id="g1630"
           transform="translate(194.8774,208.7275)">
          <path
             inkscape:connector-curvature="0"
             d="M 0,0 C 0.145,0 0.264,0.05 0.362,0.15 0.463,0.252 0.511,0.371 0.511,0.511 0.511,0.653 0.463,0.772 0.362,0.872 0.264,0.971 0.145,1.021 0,1.021 -0.138,1.02 -0.256,0.969 -0.355,0.872 -0.454,0.772 -0.503,0.651 -0.503,0.509 -0.503,0.37 -0.454,0.251 -0.355,0.15 -0.256,0.05 -0.138,0 0,0"
             style="fill:#000000;fill-opacity:1;fill-rule:nonzero;stroke:none"
             id="path1632" />
        </g>
        <g
           id="g1634"
           transform="translate(207.3176,196.5182)">
          <path
             inkscape:connector-curvature="0"
             d="M 0,0 C 0.983,0.001 1.782,0.801 1.782,1.785 1.782,2.771 0.983,3.568 0,3.567 -0.988,3.566 -1.783,2.767 -1.783,1.782 -1.783,0.798 -0.988,-0.001 0,0"
             style="fill:#f2474e;fill-opacity:1;fill-rule:nonzero;stroke:none"
             id="path1636" />
        </g>
        <g
           id="g1638"
           transform="translate(206.9595,199.4893)">
          <path
             inkscape:connector-curvature="0"
             d="m 0,0 0,-2.377 0.714,10e-4 0,2.377 L 0,0 z"
             style="fill:#ffffff;fill-opacity:1;fill-rule:nonzero;stroke:none"
             id="path1640" />
        </g>
        <g
           id="g1642"
           transform="translate(206.1279,198.6559)">
          <path
             inkscape:connector-curvature="0"
             d="m 0,0 0,-0.713 2.378,0.004 0,0.712 L 0,0 z"
             style="fill:#ffffff;fill-opacity:1;fill-rule:nonzero;stroke:none"
             id="path1644" />
        </g>
        <g
           id="g1646"
           transform="translate(184.5261,197.9836)">
          <path
             inkscape:connector-curvature="0"
             d="M 0,0 -0.391,0.895 -0.8,-0.001 0,0 z m 0.162,-0.372 -1.126,-0.002 -0.295,-0.638 -0.426,-0.002 1.301,2.798 1.258,-2.793 -0.437,-0.003 -0.275,0.64 z"
             style="fill:#000000;fill-opacity:1;fill-rule:nonzero;stroke:none"
             id="path1648" />
        </g>
        <g
           id="g1650"
           transform="translate(185.727,196.9743)">
          <path
             inkscape:connector-curvature="0"
             d="m 0,0 0,2.809 1.919,-2.005 0,1.829 0.397,0 0,-2.792 -1.918,2 L 0.398,0 0,0 z"
             style="fill:#000000;fill-opacity:1;fill-rule:nonzero;stroke:none"
             id="path1652" />
        </g>
        <g
           id="g1654"
           transform="translate(189.0712,197.3516)">
          <path
             inkscape:connector-curvature="0"
             d="m 0,0 0.177,0 c 0.18,0 0.327,0.018 0.446,0.057 0.119,0.038 0.224,0.101 0.32,0.187 0.196,0.179 0.293,0.412 0.293,0.697 0,0.29 -0.097,0.523 -0.289,0.703 -0.174,0.161 -0.43,0.239 -0.77,0.239 L 0,1.883 0,0 z m -0.398,-0.376 0,2.632 0.552,0.001 C 0.42,2.257 0.63,2.23 0.781,2.179 0.947,2.129 1.097,2.04 1.23,1.919 1.501,1.67 1.637,1.345 1.637,0.942 1.637,0.537 1.496,0.212 1.213,-0.039 1.071,-0.163 0.922,-0.252 0.766,-0.3 0.621,-0.35 0.414,-0.374 0.148,-0.374 l -0.546,-0.002 z"
             style="fill:#000000;fill-opacity:1;fill-rule:nonzero;stroke:none"
             id="path1656" />
        </g>
        <g
           id="g1658"
           transform="translate(192.6597,199.2381)">
          <path
             inkscape:connector-curvature="0"
             d="m 0,0 -1.057,-0.001 0,-0.631 1.024,0.001 0,-0.373 -1.024,-0.002 0,-0.878 1.057,0 0,-0.374 -1.453,0 0,2.63 L 0,0.374 0,0 z"
             style="fill:#000000;fill-opacity:1;fill-rule:nonzero;stroke:none"
             id="path1660" />
        </g>
        <g
           id="g1662"
           transform="translate(193.5779,198.4039)">
          <path
             inkscape:connector-curvature="0"
             d="M 0,0 0.125,0 C 0.503,0.001 0.69,0.145 0.69,0.433 0.69,0.702 0.507,0.836 0.141,0.836 L 0,0.836 0,0 z m 0.493,-0.3 0.815,-1.121 -0.485,-10e-4 -0.753,1.076 -0.07,0 0,-1.077 -0.398,0 0,2.633 0.466,0 C 0.417,1.211 0.667,1.143 0.822,1.014 0.993,0.869 1.078,0.677 1.078,0.437 1.078,0.252 1.022,0.091 0.917,-0.042 0.81,-0.176 0.671,-0.263 0.493,-0.3"
             style="fill:#000000;fill-opacity:1;fill-rule:nonzero;stroke:none"
             id="path1664" />
        </g>
        <g
           id="g1666"
           transform="translate(195.1894,196.9827)">
          <path
             inkscape:connector-curvature="0"
             d="M 0,0 0.554,2.829 1.457,0.787 2.392,2.832 2.889,0.003 2.481,0.003 2.23,1.591 1.451,-0.119 0.694,1.591 0.411,0 0,0 z"
             style="fill:#000000;fill-opacity:1;fill-rule:nonzero;stroke:none"
             id="path1668" />
        </g>
        <g
           id="g1670"
           transform="translate(200.022,197.9995)">
          <path
             inkscape:connector-curvature="0"
             d="M 0,0 -0.392,0.895 -0.8,0 0,0 z m 0.161,-0.372 -1.128,-0.001 -0.291,-0.639 -0.428,-0.002 1.301,2.799 1.256,-2.795 -0.434,-0.002 -0.276,0.64 z"
             style="fill:#000000;fill-opacity:1;fill-rule:nonzero;stroke:none"
             id="path1672" />
        </g>
        <g
           id="g1674"
           transform="translate(201.8026,199.2491)">
          <path
             inkscape:connector-curvature="0"
             d="m 0,0 0,-2.258 -0.399,-10e-4 0,2.257 -0.605,0 0,0.374 1.606,0 L 0.602,0 0,0 z"
             style="fill:#000000;fill-opacity:1;fill-rule:nonzero;stroke:none"
             id="path1676" />
        </g>
        <g
           id="g1678"
           transform="translate(203.4842,199.2505)">
          <path
             inkscape:connector-curvature="0"
             d="m 0,0 0,-2.259 -0.398,0 0,2.258 -0.603,0 0,0.372 L 0.602,0.374 0.602,0 0,0 z"
             style="fill:#000000;fill-opacity:1;fill-rule:nonzero;stroke:none"
             id="path1680" />
        </g>
        <g
           id="g1682"
           transform="translate(211.7928,199.2023)">
          <path
             inkscape:connector-curvature="0"
             d="m 0,0 -0.321,-0.191 c -0.062,0.104 -0.119,0.172 -0.173,0.203 -0.057,0.037 -0.131,0.056 -0.22,0.056 -0.11,0 -0.202,-0.032 -0.275,-0.094 -0.071,-0.063 -0.108,-0.14 -0.108,-0.233 0,-0.128 0.096,-0.23 0.286,-0.31 l 0.263,-0.108 c 0.212,-0.085 0.369,-0.191 0.468,-0.315 0.099,-0.125 0.148,-0.277 0.148,-0.457 0,-0.244 -0.082,-0.443 -0.241,-0.602 -0.164,-0.157 -0.364,-0.237 -0.606,-0.237 -0.228,-0.002 -0.417,0.066 -0.564,0.201 -0.147,0.137 -0.24,0.328 -0.276,0.572 l 0.403,0.089 c 0.018,-0.154 0.049,-0.26 0.094,-0.32 0.083,-0.114 0.2,-0.169 0.359,-0.169 0.123,0 0.227,0.04 0.309,0.123 0.08,0.082 0.122,0.187 0.122,0.315 0,0.051 -0.006,0.098 -0.022,0.142 -0.013,0.041 -0.036,0.08 -0.066,0.116 -0.03,0.035 -0.068,0.071 -0.116,0.101 -0.048,0.032 -0.106,0.061 -0.172,0.089 l -0.253,0.106 c -0.36,0.151 -0.541,0.374 -0.541,0.666 0,0.197 0.076,0.362 0.228,0.496 0.151,0.135 0.339,0.202 0.564,0.202 C -0.409,0.441 -0.17,0.293 0,0"
             style="fill:#000000;fill-opacity:1;fill-rule:nonzero;stroke:none"
             id="path1684" />
        </g>
        <g
           id="g1686"
           transform="translate(213.7918,199.2214)">
          <path
             inkscape:connector-curvature="0"
             d="m 0,0 -1.056,0 0,-0.634 1.026,0.001 0,-0.373 -1.026,-10e-4 0,-0.878 1.056,0.001 0,-0.374 -1.452,-10e-4 0,2.631 L 0,0.374 0,0 z"
             style="fill:#000000;fill-opacity:1;fill-rule:nonzero;stroke:none"
             id="path1688" />
        </g>
        <g
           id="g1690"
           transform="translate(214.7114,197.3383)">
          <path
             inkscape:connector-curvature="0"
             d="m 0,0 0.177,0 c 0.179,0 0.328,0.018 0.444,0.057 0.12,0.039 0.226,0.102 0.322,0.188 0.195,0.179 0.293,0.411 0.293,0.697 0,0.291 -0.098,0.524 -0.29,0.703 -0.174,0.16 -0.429,0.24 -0.769,0.24 L 0,1.885 0,0 z m -0.399,-0.374 0,2.632 0.553,0 C 0.418,2.258 0.627,2.231 0.782,2.18 0.946,2.129 1.094,2.042 1.229,1.921 1.502,1.672 1.636,1.347 1.636,0.942 1.636,0.539 1.495,0.211 1.211,-0.04 1.07,-0.165 0.921,-0.251 0.766,-0.299 0.62,-0.348 0.414,-0.373 0.148,-0.374 l -0.547,0 z"
             style="fill:#000000;fill-opacity:1;fill-rule:nonzero;stroke:none"
             id="path1692" />
        </g>
        <g
           id="g1694"
           transform="translate(217.244,198.3906)">
          <path
             inkscape:connector-curvature="0"
             d="M 0,0 0.125,0 C 0.502,0 0.69,0.143 0.69,0.432 0.69,0.701 0.508,0.835 0.141,0.834 L 0,0.834 0,0 z m 0.494,-0.302 0.814,-1.12 -0.485,0 -0.751,1.075 -0.072,0 0,-1.076 -0.398,0 0,2.63 0.466,10e-4 C 0.415,1.208 0.666,1.142 0.823,1.013 0.992,0.868 1.077,0.676 1.077,0.436 1.077,0.251 1.023,0.091 0.916,-0.044 0.81,-0.178 0.669,-0.264 0.494,-0.302"
             style="fill:#000000;fill-opacity:1;fill-rule:nonzero;stroke:none"
             id="path1696" />
        </g>
        <g
           id="g1698"
           transform="translate(219.3062,199.601)">
          <path
             inkscape:connector-curvature="0"
             d="m 0,0 0,-1.585 c 0,-0.224 0.036,-0.391 0.109,-0.495 0.111,-0.15 0.265,-0.227 0.465,-0.227 0.202,0 0.357,0.078 0.468,0.227 0.074,0.103 0.11,0.268 0.11,0.496 l 0,1.584 0.398,0 0,-1.693 c 0,-0.276 -0.086,-0.505 -0.259,-0.685 -0.194,-0.2 -0.434,-0.302 -0.717,-0.302 -0.28,0 -0.519,0.102 -0.712,0.3 -0.173,0.179 -0.26,0.409 -0.26,0.686 l 0,1.693 L 0,0 z"
             style="fill:#000000;fill-opacity:1;fill-rule:nonzero;stroke:none"
             id="path1700" />
        </g>
        <g
           id="g1702"
           transform="translate(221.4867,196.972)">
          <path
             inkscape:connector-curvature="0"
             d="m 0,0 0,2.809 1.919,-2.004 0,1.827 0.398,10e-4 0,-2.791 -1.919,2 L 0.398,0 0,0 z"
             style="fill:#000000;fill-opacity:1;fill-rule:nonzero;stroke:none"
             id="path1704" />
        </g>
        <g
           id="g1706"
           transform="translate(185.419,206.5819)">
          <path
             inkscape:connector-curvature="0"
             d="m 0,0 c -0.717,0.307 -1.168,0.56 -1.353,0.762 -0.188,0.201 -0.283,0.434 -0.283,0.704 0,0.304 0.115,0.565 0.343,0.778 0.228,0.215 0.536,0.323 0.922,0.323 0.271,0 0.518,-0.055 0.735,-0.163 C 0.582,2.295 0.746,2.146 0.854,1.954 0.96,1.763 1.055,1.459 1.137,1.043 L 1.508,1.044 C 1.49,1.379 1.485,1.647 1.485,1.845 1.485,1.942 1.49,2.227 1.508,2.701 0.828,2.929 0.249,3.044 -0.231,3.044 -0.63,3.042 -1.016,2.954 -1.384,2.777 -1.757,2.6 -2.037,2.36 -2.227,2.059 -2.42,1.755 -2.514,1.438 -2.514,1.104 c 0,-0.382 0.117,-0.711 0.354,-0.985 0.237,-0.279 0.707,-0.569 1.406,-0.872 0.701,-0.302 1.158,-0.572 1.367,-0.813 0.209,-0.243 0.312,-0.521 0.312,-0.835 0,-0.385 -0.142,-0.686 -0.432,-0.9 -0.288,-0.215 -0.623,-0.321 -1.004,-0.322 -0.278,0 -0.533,0.062 -0.767,0.186 -0.232,0.123 -0.405,0.284 -0.521,0.479 -0.116,0.194 -0.225,0.534 -0.332,1.018 l -0.374,0 c 0,-0.754 -0.024,-1.36 -0.073,-1.816 0.428,-0.143 0.794,-0.242 1.1,-0.3 0.307,-0.058 0.612,-0.087 0.917,-0.087 0.446,10e-4 0.864,0.095 1.251,0.286 0.387,0.19 0.676,0.443 0.869,0.762 0.195,0.317 0.29,0.661 0.29,1.031 0,0.414 -0.128,0.783 -0.385,1.115 C 1.207,-0.622 0.717,-0.305 0,0"
             style="fill:#000000;fill-opacity:1;fill-rule:nonzero;stroke:none"
             id="path1708" />
        </g>
        <g
           id="g1710"
           transform="translate(189.6053,209.6165)">
          <path
             inkscape:connector-curvature="0"
             d="M 0,0 -0.118,0.102 C -0.55,-0.137 -1.069,-0.35 -1.671,-0.547 l 0,-0.262 c 0.204,0.029 0.362,0.044 0.466,0.044 0.13,0 0.219,-0.031 0.27,-0.092 0.049,-0.062 0.075,-0.221 0.075,-0.476 0,-0.048 0,-0.094 -0.001,-0.139 -0.003,-0.043 -0.003,-0.085 -0.003,-0.128 l 0.01,-1.352 c 0,-1.71 -0.007,-2.748 -0.02,-3.117 -0.014,-0.28 -0.044,-0.443 -0.094,-0.496 -0.051,-0.05 -0.269,-0.112 -0.655,-0.192 l 0,-0.186 0,-0.085 2.362,0.003 0,0.167 0,0.104 c -0.091,0.028 -0.161,0.049 -0.21,0.058 -0.268,0.064 -0.43,0.126 -0.49,0.185 -0.057,0.058 -0.091,0.151 -0.102,0.28 -0.018,0.218 -0.029,0.801 -0.029,1.752 0,1.601 0.006,2.634 0.019,3.1 C -0.06,-0.915 -0.036,-0.456 0,0"
             style="fill:#000000;fill-opacity:1;fill-rule:nonzero;stroke:none"
             id="path1712" />
        </g>
        <g
           id="g1714"
           transform="translate(191.7197,203.6169)">
          <path
             inkscape:connector-curvature="0"
             d="m 0,0 -1.376,1.712 0.837,0.748 c 0.366,0.33 0.617,0.53 0.75,0.602 0.134,0.071 0.414,0.157 0.843,0.252 l 0,0.272 C 0.522,3.551 0.179,3.533 0.023,3.533 c -0.213,0 -0.538,0.016 -0.972,0.052 l 0,-0.272 c 0.146,-0.014 0.239,-0.034 0.275,-0.064 0.036,-0.03 0.056,-0.067 0.056,-0.11 0,-0.034 -0.015,-0.073 -0.049,-0.117 C -0.713,2.962 -0.83,2.84 -1.023,2.659 l -1.184,-1.138 1.081,-1.36 c 0.275,-0.343 0.433,-0.55 0.471,-0.617 0.025,-0.042 0.039,-0.082 0.039,-0.117 0,-0.036 -0.014,-0.066 -0.042,-0.093 -0.023,-0.018 -0.12,-0.049 -0.29,-0.088 l 0,-0.189 -0.005,-0.001 0,-0.085 2.231,0.003 0,0.002 0,0.166 0,0.092 C 0.912,-0.679 0.657,-0.592 0.515,-0.505 0.373,-0.417 0.199,-0.249 0,0"
             style="fill:#000000;fill-opacity:1;fill-rule:nonzero;stroke:none"
             id="path1716" />
        </g>
        <g
           id="g1718"
           transform="translate(195.3805,203.1041)">
          <path
             inkscape:connector-curvature="0"
             d="m 0,0 c -0.05,0.04 -0.084,0.105 -0.103,0.197 -0.029,0.136 -0.043,0.498 -0.043,1.088 0,1.259 0.032,2.233 0.096,2.919 L -0.176,4.307 C -0.655,4.03 -1.167,3.823 -1.711,3.682 l 0,-0.271 c 0.272,0.029 0.442,0.044 0.51,0.044 0.107,10e-4 0.185,-0.037 0.233,-0.11 C -0.92,3.27 -0.896,3.05 -0.896,2.687 l 0,-0.198 0.007,-1.035 c 0,-0.843 -0.029,-1.306 -0.084,-1.397 -0.055,-0.091 -0.301,-0.186 -0.738,-0.295 l 0,-0.272 0.006,0 0,-0.006 2.363,0.003 0,0.005 c 0.002,0 0.003,-0.001 0.006,-0.001 l 0,0.274 C 0.593,-0.213 0.541,-0.197 0.505,-0.189 0.215,-0.103 0.048,-0.04 0,0"
             style="fill:#000000;fill-opacity:1;fill-rule:nonzero;stroke:none"
             id="path1720" />
        </g>
        <g
           id="g1722"
           transform="translate(203.3843,203.3193)">
          <path
             inkscape:connector-curvature="0"
             d="m 0,0 -1.133,2.472 c -0.639,1.424 -1.176,2.697 -1.613,3.822 l -0.305,0 -1.337,-3.101 C -5.143,1.448 -5.611,0.416 -5.798,0.094 -5.885,-0.051 -5.969,-0.154 -6.05,-0.215 -6.159,-0.297 -6.361,-0.37 -6.657,-0.435 l 0,-0.211 0,-0.077 0,-0.008 2.278,0.003 0,0.008 0,0.159 0,0.129 c -0.063,0.019 -0.114,0.033 -0.149,0.043 -0.338,0.071 -0.526,0.119 -0.567,0.147 -0.04,0.028 -0.061,0.062 -0.061,0.104 0,0.05 0.042,0.172 0.127,0.37 l 0.51,1.23 1.33,0.012 c 0.313,0 0.813,-0.004 1.499,-0.009 L -1.196,0.28 c 0.068,-0.162 0.103,-0.277 0.103,-0.345 0,-0.065 -0.033,-0.121 -0.098,-0.17 -0.065,-0.048 -0.294,-0.114 -0.684,-0.193 l 0,-0.218 -0.002,0 0,-0.085 2.76,0.003 0,0.015 0,0.152 0,0.134 C 0.449,-0.3 0.211,-0.224 0.17,-0.195 0.106,-0.153 0.05,-0.088 0,0 m -3.366,1.93 c -0.193,0 -0.516,0.005 -0.966,0.017 l 1.226,2.916 1.231,-2.912 C -2.812,1.936 -3.309,1.93 -3.366,1.93"
             style="fill:#000000;fill-opacity:1;fill-rule:nonzero;stroke:none"
             id="path1724" />
        </g>
        <g
           id="g1726"
           transform="translate(207.3424,207.1268)">
          <path
             inkscape:connector-curvature="0"
             d="m 0,0 c -0.155,-0.107 -0.431,-0.4 -0.822,-0.88 0.01,0.374 0.041,0.718 0.093,1.035 l -0.126,0.094 c -0.426,-0.268 -0.942,-0.478 -1.546,-0.631 l 0,-0.271 c 0.055,0.005 0.097,0.01 0.126,0.015 0.194,0.032 0.332,0.048 0.415,0.048 0.149,0 0.239,-0.065 0.271,-0.199 0.02,-0.076 0.029,-0.633 0.029,-1.666 l -0.009,-1.052 c 0,-0.265 -0.03,-0.426 -0.086,-0.486 -0.056,-0.059 -0.306,-0.144 -0.751,-0.255 l 0,-0.206 0,-0.066 0,-0.019 2.469,0.003 0,0.018 0,0.15 0,0.122 c -0.386,0.087 -0.615,0.158 -0.688,0.213 -0.072,0.055 -0.117,0.131 -0.134,0.228 -0.042,0.26 -0.063,0.763 -0.063,1.514 0,0.423 0.05,0.751 0.149,0.983 0.099,0.231 0.258,0.436 0.479,0.614 0.149,0.119 0.287,0.179 0.417,0.179 0.084,0 0.161,-0.034 0.228,-0.103 0.068,-0.071 0.117,-0.184 0.146,-0.339 L 0.84,-0.956 C 0.887,-0.61 0.944,-0.272 1.014,0.06 0.843,0.128 0.689,0.162 0.549,0.162 0.337,0.162 0.155,0.108 0,0"
             style="fill:#000000;fill-opacity:1;fill-rule:nonzero;stroke:none"
             id="path1728" />
        </g>
        <g
           id="g1730"
           transform="translate(218.2418,203.0961)">
          <path
             inkscape:connector-curvature="0"
             d="m 0,0 c -0.045,0.04 -0.076,0.107 -0.093,0.205 -0.02,0.141 -0.029,0.607 -0.029,1.394 l 0.016,1.176 c 0,0.498 -0.079,0.85 -0.238,1.054 C -0.58,4.137 -0.932,4.29 -1.395,4.29 -1.602,4.289 -1.801,4.252 -1.992,4.182 -2.13,4.129 -2.253,4.059 -2.356,3.968 L -2.973,3.355 c 0.009,0.292 0.037,0.574 0.083,0.849 L -3.022,4.289 C -3.495,4.011 -4.023,3.804 -4.605,3.668 l 0,-0.282 c 0.084,0.011 0.147,0.02 0.189,0.025 0.152,0.025 0.263,0.034 0.335,0.034 0.156,0 0.25,-0.066 0.287,-0.203 0.023,-0.094 0.033,-0.69 0.033,-1.786 0,-0.532 -0.017,-0.952 -0.053,-1.26 -0.012,-0.111 -0.035,-0.18 -0.067,-0.205 -0.053,-0.041 -0.272,-0.109 -0.657,-0.198 l 0,-0.212 -0.002,0 0,-0.086 2.373,0.004 0,0.023 0,0.144 0,0.129 c -0.081,0.022 -0.142,0.037 -0.184,0.047 -0.329,0.084 -0.52,0.174 -0.569,0.269 -0.048,0.097 -0.073,0.727 -0.073,1.893 0,0.411 0.049,0.723 0.148,0.933 0.099,0.211 0.252,0.378 0.459,0.504 0.209,0.125 0.418,0.187 0.632,0.187 C -1.55,3.629 -1.375,3.57 -1.23,3.453 -1.083,3.338 -0.988,3.172 -0.942,2.959 -0.915,2.813 -0.899,2.387 -0.899,1.681 -0.899,1.02 -0.917,0.53 -0.952,0.209 -0.962,0.121 -0.991,0.057 -1.037,0.019 -1.084,-0.02 -1.298,-0.095 -1.675,-0.205 l 0,-0.214 -0.006,0 0,-0.086 2.361,0.004 0,0.026 0,0.141 0,0.131 C 0.584,-0.182 0.509,-0.162 0.462,-0.148 0.199,-0.088 0.044,-0.039 0,0"
             style="fill:#000000;fill-opacity:1;fill-rule:nonzero;stroke:none"
             id="path1732" />
        </g>
        <g
           id="g1734"
           transform="translate(223.9279,203.4862)">
          <path
             inkscape:connector-curvature="0"
             d="m 0,0 c -0.251,-0.175 -0.433,-0.262 -0.55,-0.262 -0.099,0 -0.176,0.042 -0.238,0.127 -0.06,0.084 -0.092,0.261 -0.092,0.533 l 0.044,2.007 c 0,0.34 -0.027,0.587 -0.08,0.743 C -0.969,3.303 -1.048,3.437 -1.152,3.549 -1.254,3.659 -1.397,3.747 -1.574,3.81 -1.752,3.874 -1.95,3.905 -2.17,3.905 -2.677,3.905 -3.247,3.759 -3.877,3.474 -3.904,3.142 -3.95,2.806 -4.012,2.469 l 0.314,-0.034 c 0.149,0.35 0.318,0.607 0.506,0.77 0.191,0.165 0.417,0.247 0.681,0.247 0.281,10e-4 0.49,-0.073 0.625,-0.221 C -1.75,3.081 -1.672,2.778 -1.656,2.32 -2.128,2.133 -2.677,1.885 -3.309,1.575 -3.58,1.442 -3.769,1.331 -3.882,1.236 -4.028,1.109 -4.14,0.963 -4.218,0.795 -4.295,0.63 -4.334,0.442 -4.334,0.233 c 0,-0.338 0.11,-0.618 0.33,-0.837 0.219,-0.218 0.511,-0.328 0.871,-0.328 0.219,0.001 0.423,0.041 0.611,0.121 0.188,0.081 0.476,0.269 0.866,0.572 0.037,-0.249 0.114,-0.427 0.229,-0.531 0.116,-0.106 0.278,-0.16 0.488,-0.158 0.137,0 0.25,0.026 0.341,0.078 0.041,0.024 0.291,0.243 0.748,0.652 L 0,0 z m -1.656,1.068 c 0,-0.402 -0.036,-0.679 -0.106,-0.831 -0.069,-0.154 -0.212,-0.291 -0.427,-0.412 -0.216,-0.12 -0.416,-0.181 -0.6,-0.181 -0.177,-0.001 -0.333,0.072 -0.467,0.218 -0.132,0.145 -0.2,0.339 -0.2,0.582 0,0.241 0.09,0.452 0.266,0.624 0.176,0.174 0.688,0.45 1.534,0.829 l 0,-0.829 z"
             style="fill:#000000;fill-opacity:1;fill-rule:nonzero;stroke:none"
             id="path1736" />
        </g>
        <g
           id="g1738"
           transform="translate(212.9656,203.5041)">
          <path
             inkscape:connector-curvature="0"
             d="m 0,0 -0.187,0.287 c -0.343,-0.222 -0.629,-0.372 -0.859,-0.455 -0.231,-0.083 -0.451,-0.126 -0.661,-0.126 -0.418,0 -0.751,0.186 -1.003,0.564 -0.248,0.371 -0.37,0.919 -0.367,1.646 0.636,0.026 2.443,0.04 2.674,0.036 0.194,0.364 0.267,0.469 0.348,0.642 C -0.106,2.988 -0.238,3.293 -0.453,3.509 -0.727,3.787 -1.114,3.925 -1.618,3.925 -2.266,3.922 -2.814,3.688 -3.264,3.217 -3.713,2.746 -3.938,2.123 -3.938,1.346 c 0,-0.722 0.189,-1.295 0.563,-1.719 0.374,-0.423 0.827,-0.635 1.353,-0.634 0.936,0 1.638,0.605 2.022,1.007 m -2.551,3.23 c 0.208,0.183 0.444,0.276 0.709,0.276 0.309,0 0.555,-0.121 0.737,-0.364 C -0.982,2.975 -0.91,2.734 -0.892,2.413 -1.592,2.351 -2.21,2.32 -2.741,2.32 c -0.062,0 -0.152,0 -0.273,0.003 0.101,0.422 0.255,0.725 0.463,0.907"
             style="fill:#000000;fill-opacity:1;fill-rule:nonzero;stroke:none"
             id="path1740" />
        </g>
      </g>
    </g>
  </g>
</svg>
